<svg width="398" height="120" viewBox="0 0 398 120" fill="none" xmlns="http://www.w3.org/2000/svg">
<path d="M87.9499 94.9991H41.5511C40.4996 95.0148 39.4553 94.8229 38.478 94.4344C37.5007 94.0459 36.6097 93.4685 35.8558 92.7352C35.102 92.0019 34.5002 91.1271 34.0849 90.1609C33.6696 89.1948 33.4489 88.1562 33.4355 87.1046V32.902C33.4479 31.8498 33.6678 30.8104 34.0827 29.8434C34.4975 28.8764 35.0992 28.0008 35.8531 27.2667C36.6071 26.5327 37.4985 25.9547 38.4763 25.5659C39.4541 25.1771 40.499 24.9851 41.5511 25.0009H87.9499C89.0021 24.9851 90.047 25.1771 91.0248 25.5659C92.0026 25.9547 92.894 26.5327 93.6479 27.2667C94.4019 28.0008 95.0035 28.8764 95.4184 29.8434C95.8333 30.8104 96.0532 31.8498 96.0655 32.902V87.1427C96.0233 89.2582 95.1465 91.2712 93.6263 92.7429C92.106 94.2146 90.0657 95.0256 87.9499 94.9991Z" fill="#DBF227"/>
<path d="M55.2137 48.9739L44.0271 36.6966C43.385 35.9821 42.4219 35.9374 42.4219 36.8755V82.5888C42.4219 83.5269 43.385 83.7493 44.0271 82.9901L55.211 70.6694C55.3856 70.4899 55.4841 70.25 55.486 69.9996V49.6436C55.485 49.3936 55.3874 49.1537 55.2137 48.9739Z" fill="#1E163B"/>
<path d="M61.3571 34.1519H86.0235C86.2228 34.1452 86.4196 34.1976 86.5893 34.3023C86.7589 34.4071 86.8938 34.5597 86.9771 34.7409C87.0603 34.9221 87.0881 35.1238 87.057 35.3208C87.026 35.5178 86.9374 35.7012 86.8025 35.8479L65.8043 59.3302C65.6488 59.5188 65.5638 59.7556 65.5638 60C65.5638 60.2444 65.6488 60.4811 65.8043 60.6697L86.6656 84.152C86.7957 84.3004 86.88 84.4833 86.9084 84.6785C86.9368 84.8738 86.9081 85.0731 86.8257 85.2524C86.7434 85.4317 86.6109 85.5833 86.4443 85.689C86.2777 85.7947 86.084 85.8499 85.8867 85.848H61.4031C61.2661 85.8519 61.1296 85.8282 61.0019 85.7783C60.8741 85.7284 60.7577 85.6534 60.6596 85.5577C60.5614 85.462 60.4834 85.3475 60.4303 85.2211C60.3773 85.0946 60.3501 84.9588 60.3505 84.8217V35.1795C60.3447 35.0448 60.3666 34.9104 60.4149 34.7845C60.4632 34.6586 60.5367 34.5439 60.6311 34.4476C60.7254 34.3513 60.8385 34.2753 60.9634 34.2245C61.0883 34.1736 61.2223 34.1489 61.3571 34.1519Z" fill="#1E163B"/>
<path d="M129.947 56.7424L142.464 44.5546C142.666 44.3871 142.809 44.1586 142.87 43.9033C142.932 43.6479 142.909 43.3796 142.805 43.1383C142.702 42.897 142.523 42.6957 142.295 42.5647C142.067 42.4336 141.804 42.3798 141.543 42.4112H134.532L122.245 53.6162V26.3406C122.246 26.1614 122.21 25.9839 122.141 25.8186C122.072 25.6533 121.97 25.5037 121.842 25.3786C121.713 25.2536 121.561 25.1557 121.394 25.0909C121.227 25.026 121.049 24.9955 120.87 25.0012H115.276C114.919 25.0053 114.577 25.1467 114.321 25.396C114.065 25.6453 113.915 25.9835 113.901 26.3406V75.8933C113.906 76.2535 114.054 76.5972 114.311 76.849C114.569 77.1008 114.916 77.2402 115.276 77.2367H120.87C121.05 77.246 121.23 77.218 121.398 77.1544C121.567 77.0909 121.721 76.9931 121.85 76.8674C121.979 76.7416 122.081 76.5905 122.149 76.4235C122.216 76.2566 122.249 76.0774 122.245 75.8972V63.5725L123.804 62.0542L134.9 76.3841C135.214 76.8095 135.669 77.11 136.184 77.2327H142.557C142.807 77.2494 143.057 77.1919 143.274 77.0674C143.492 76.9429 143.668 76.757 143.78 76.5329C143.893 76.3088 143.936 76.0566 143.906 75.8078C143.876 75.5589 143.773 75.3246 143.61 75.1341L129.947 56.7424Z" fill="#DBF227"/>
<path d="M171.665 46.6515C168.707 43.7808 164.735 42.1927 160.613 42.2319C158.344 42.2431 156.099 42.7013 154.006 43.5802C151.914 44.4591 150.015 45.7417 148.419 47.3545C146.822 48.9673 145.559 50.8788 144.701 52.9799C143.844 55.081 143.408 57.3305 143.42 59.5999C143.394 61.9787 143.838 64.3392 144.728 66.5458C145.617 68.7523 146.933 70.7614 148.601 72.4575C150.173 74.0029 152.037 75.2208 154.083 76.0407C156.129 76.8606 158.318 77.2661 160.522 77.2336C162.845 77.3001 165.158 76.8997 167.324 76.0563C169.49 75.2128 171.465 73.9434 173.131 72.3232C173.25 72.2118 173.346 72.0771 173.411 71.9274C173.476 71.7776 173.509 71.6161 173.509 71.4529C173.509 71.2896 173.476 71.1281 173.411 70.9784C173.346 70.8287 173.25 70.6939 173.131 70.5825L169.052 66.8326C168.796 66.6238 168.48 66.5025 168.15 66.4864C167.82 66.4703 167.493 66.5602 167.218 66.7431C165.341 68.3074 162.966 69.1476 160.524 69.1115C158.834 69.086 157.193 68.5471 155.817 67.5664C154.441 66.5857 153.396 65.2095 152.821 63.6208H174.835C175.147 63.617 175.447 63.5027 175.682 63.2984C175.917 63.0941 176.072 62.813 176.119 62.5051C176.26 61.3048 176.336 60.0978 176.348 58.8894C176.394 52.3211 174.102 48.8844 171.665 46.6515ZM152.782 55.8934C153.276 54.2687 154.287 52.8493 155.66 51.8505C157.034 50.8516 158.695 50.3277 160.393 50.358C162.049 50.3665 163.658 50.91 164.98 51.9075C166.302 52.9051 167.266 54.3032 167.729 55.8934H152.782Z" fill="#DBF227"/>
<path d="M209.544 42.3663H203.216C202.574 42.3663 202.207 42.7676 201.841 43.7057L193.589 62.6789L185.563 43.7504C185.149 42.7689 184.692 42.3663 184.05 42.3663H177.725C177.504 42.3589 177.285 42.4076 177.088 42.5079C176.892 42.6081 176.724 42.7566 176.6 42.9394C176.476 43.1223 176.401 43.3335 176.381 43.5533C176.361 43.7732 176.398 43.9944 176.487 44.1965L188.723 73.08L180.063 92.9913C179.962 93.1794 179.913 93.3914 179.923 93.6048C179.932 93.8182 179.999 94.0251 180.117 94.2035C180.234 94.3819 180.398 94.5253 180.59 94.6183C180.782 94.7114 180.996 94.7506 181.209 94.732H187.215C187.618 94.7314 188.009 94.6007 188.332 94.3593C188.654 94.1179 188.89 93.7788 189.003 93.3926L210.736 44.1965C210.843 43.9999 210.896 43.7779 210.887 43.5539C210.878 43.33 210.809 43.1126 210.687 42.9248C210.565 42.737 210.394 42.5859 210.192 42.4876C209.991 42.3892 209.767 42.3473 209.544 42.3663Z" fill="#DBF227"/>
<path d="M232.558 42.3662C229.086 42.6065 225.758 43.8467 222.976 45.9372V43.8412C222.983 43.668 222.955 43.4951 222.894 43.333C222.832 43.1708 222.739 43.0227 222.619 42.8976C222.499 42.7725 222.355 42.6729 222.196 42.6049C222.036 42.5368 221.865 42.5018 221.691 42.5017H216.053C215.879 42.4979 215.706 42.5304 215.544 42.5971C215.383 42.6638 215.238 42.7632 215.117 42.8892C214.996 43.0151 214.903 43.1648 214.843 43.3287C214.783 43.4925 214.758 43.6671 214.769 43.8412V93.482C214.767 93.6496 214.799 93.8158 214.864 93.9706C214.928 94.1254 215.023 94.2655 215.143 94.3824C215.263 94.4993 215.406 94.5905 215.562 94.6506C215.719 94.7107 215.886 94.7384 216.053 94.732H221.693C221.86 94.7382 222.027 94.7104 222.183 94.6502C222.34 94.5901 222.482 94.4988 222.602 94.3819C222.722 94.2651 222.818 94.1251 222.882 93.9704C222.946 93.8157 222.979 93.6495 222.977 93.482V73.9286C225.65 76.0587 228.918 77.3065 232.331 77.4995C242.28 77.4995 249.435 69.9102 249.435 59.9105C249.43 49.866 242.279 42.3662 232.558 42.3662ZM232.191 69.2353C226.919 69.2353 223.343 65.0393 223.343 59.9052C223.284 58.7158 223.472 57.5272 223.892 56.4131C224.313 55.2991 224.958 54.2835 225.788 53.4294C226.618 52.5754 227.615 51.9011 228.716 51.4486C229.818 50.9961 231.001 50.7749 232.191 50.7989C237.28 50.7989 240.858 54.683 240.858 59.8605C240.858 64.9998 237.145 69.2353 232.191 69.2353Z" fill="#8E6EC8"/>
<path d="M286.294 42.3672H280.747C280.568 42.3615 280.389 42.3921 280.222 42.4569C280.055 42.5218 279.903 42.6196 279.775 42.7447C279.646 42.8697 279.545 43.0193 279.475 43.1846C279.406 43.3499 279.371 43.5275 279.372 43.7066V45.8053C276.71 43.7233 273.481 42.4942 270.109 42.2791C265.518 42.3479 261.138 44.2234 257.92 47.499C254.702 50.7747 252.904 55.1866 252.916 59.7786C252.916 69.7784 260.021 77.2782 269.974 77.2782C273.391 77.0796 276.668 75.8501 279.372 73.7519V75.8506C279.378 76.2101 279.526 76.5528 279.783 76.8037C280.041 77.0547 280.387 77.1935 280.747 77.19H286.294C286.474 77.1995 286.654 77.1716 286.823 77.1082C286.992 77.0447 287.146 76.947 287.275 76.8212C287.404 76.6953 287.506 76.5442 287.573 76.3771C287.641 76.2101 287.674 76.0308 287.669 75.8506V43.6619C287.673 43.4839 287.64 43.3071 287.571 43.1428C287.502 42.9786 287.399 42.8307 287.27 42.7086C287.14 42.5865 286.986 42.4931 286.818 42.4343C286.65 42.3754 286.472 42.3526 286.294 42.3672ZM270.431 68.7955C268.058 68.7317 265.804 67.7442 264.148 66.0433C262.492 64.3424 261.566 62.0623 261.566 59.6885C261.566 57.3147 262.492 55.0346 264.148 53.3337C265.804 51.6327 268.058 50.6453 270.431 50.5815C271.605 50.5947 272.765 50.8422 273.842 51.3095C274.919 51.7769 275.891 52.4546 276.703 53.303C277.514 54.1513 278.148 55.1532 278.567 56.2499C278.986 57.3465 279.182 58.5158 279.143 59.6891C279.178 60.8614 278.979 62.0288 278.559 63.1235C278.138 64.2183 277.504 65.2185 276.693 66.0659C275.883 66.9133 274.912 67.591 273.837 68.0596C272.762 68.5282 271.604 68.7784 270.431 68.7955Z" fill="#8E6EC8"/>
<path d="M324.716 42.54H319.122C318.942 42.5345 318.764 42.5652 318.597 42.6301C318.43 42.695 318.278 42.7929 318.15 42.9179C318.021 43.0429 317.92 43.1925 317.85 43.3577C317.781 43.5229 317.746 43.7003 317.747 43.8795V45.9781C315.028 43.8673 311.737 42.6235 308.302 42.4084C298.581 42.4084 291.292 49.9977 291.292 59.9527C291.292 69.9972 298.49 77.497 308.44 77.497C311.829 77.2622 315.07 76.0185 317.747 73.9261V76.0694C317.747 79.8193 316.826 82.4087 315.408 83.8824C314.588 84.7147 313.61 85.3759 312.531 85.8276C311.453 86.2793 310.296 86.5126 309.127 86.5139C307.774 86.524 306.436 86.2281 305.213 85.6482C303.991 85.0683 302.915 84.2195 302.067 83.1653C301.949 83.015 301.801 82.8913 301.632 82.8022C301.464 82.713 301.278 82.6605 301.088 82.6481C300.897 82.6357 300.706 82.6636 300.527 82.7301C300.349 82.7965 300.186 82.9 300.05 83.0337L295.923 87.1441C295.691 87.3687 295.552 87.6733 295.534 87.9964C295.517 88.3195 295.623 88.637 295.831 88.8849C297.516 90.7347 299.569 92.2108 301.859 93.2182C304.149 94.2255 306.625 94.7417 309.127 94.7334C311.313 94.7547 313.482 94.3393 315.505 93.5114C317.529 92.6836 319.367 91.46 320.911 89.9125C324.578 86.3415 326.042 81.9219 326.042 72.1498V43.8847C326.049 43.7079 326.02 43.5316 325.955 43.3666C325.891 43.2017 325.794 43.0516 325.67 42.9256C325.546 42.7996 325.397 42.7004 325.233 42.6341C325.069 42.5678 324.893 42.5358 324.716 42.54ZM308.664 69.2867C303.392 69.2867 299.862 65.046 299.862 59.9119C299.808 58.7373 299.994 57.5641 300.409 56.4637C300.823 55.3633 301.457 54.3587 302.271 53.5109C303.086 52.6632 304.065 51.99 305.148 51.5324C306.231 51.0748 307.396 50.8423 308.572 50.849C309.752 50.8557 310.919 51.0982 312.004 51.562C313.089 52.0259 314.07 52.7019 314.891 53.5503C315.711 54.3987 316.353 55.4025 316.78 56.5026C317.207 57.6027 317.41 58.7771 317.377 59.9567C317.427 65.0908 314.262 69.2867 308.664 69.2867Z" fill="#8E6EC8"/>
<path d="M347.41 42.2322C345.124 42.2319 342.861 42.6863 340.753 43.5689C338.644 44.4516 336.732 45.7448 335.128 47.3733C333.524 49.0018 332.26 50.9331 331.41 53.0548C330.559 55.1765 330.139 57.4462 330.174 59.7317C330.139 62.0116 330.559 64.2755 331.407 66.3918C332.256 68.5081 333.517 70.4345 335.117 72.0589C336.717 73.6834 338.624 74.9734 340.727 75.8539C342.83 76.7344 345.087 77.1879 347.368 77.1879C349.648 77.1879 351.905 76.7344 354.008 75.8539C356.111 74.9734 358.018 73.6834 359.618 72.0589C361.218 70.4345 362.479 68.5081 363.328 66.3918C364.176 64.2755 364.596 62.0116 364.561 59.7317C364.607 57.4505 364.197 55.183 363.356 53.0621C362.514 50.9411 361.258 49.0094 359.661 47.3798C358.064 45.7502 356.158 44.4556 354.054 43.5717C351.951 42.6878 349.692 42.2324 347.41 42.2322ZM347.364 69.017C342.459 69.017 338.791 64.8658 338.791 59.7317C338.791 54.5977 342.414 50.4464 347.364 50.4464C352.364 50.4464 355.984 54.5977 355.984 59.7317C355.984 64.8224 352.318 69.017 347.364 69.017Z" fill="#8E6EC8"/>
</svg>
