<svg xmlns="http://www.w3.org/2000/svg" width="200" height="41" viewBox="0 0 200 41" fill="none">
  <g opacity="0.9">
    <path d="M32.9265 40.9995H4.90143C4.26591 41.0088 3.63475 40.8963 3.04414 40.6685C2.45354 40.4408 1.91511 40.1022 1.45974 39.6722C1.00438 39.2423 0.641024 38.7294 0.390528 38.1629C0.140032 37.5965 0.00731852 36.9877 0 36.3714V4.62857C0.00731852 4.01229 0.140032 3.40349 0.390528 2.83706C0.641024 2.27063 1.00438 1.75772 1.45974 1.32775C1.91511 0.897787 2.45354 0.559217 3.04414 0.331461C3.63475 0.103706 4.26591 -0.00875402 4.90143 0.000531515H32.9265C33.562 -0.00875402 34.1932 0.103706 34.7838 0.331461C35.3744 0.559217 35.9128 0.897787 36.3682 1.32775C36.8235 1.75772 37.1869 2.27063 37.4374 2.83706C37.6879 3.40349 37.8206 4.01229 37.8279 4.62857V36.3954C37.8031 37.6348 37.2739 38.8143 36.3557 39.6768C35.4375 40.5394 34.2048 41.0148 32.9265 40.9995Z" fill="#201646"/>
    <path d="M13.1541 14.0408L6.3969 6.8505C6.00946 6.43234 5.42773 6.40621 5.42773 6.95504V33.7279C5.42773 34.2773 6.00946 34.408 6.3969 33.9632L13.1541 26.7472C13.2604 26.6426 13.3208 26.5021 13.3226 26.3552V14.4334C13.3209 14.2863 13.2605 14.1456 13.1541 14.0408Z" fill="#DBF227"/>
    <path d="M16.8651 5.36019H31.7637C31.8841 5.35633 32.003 5.38704 32.1054 5.44845C32.2079 5.50986 32.2893 5.59924 32.3396 5.70537C32.3898 5.81151 32.4067 5.92967 32.3879 6.04503C32.3692 6.1604 32.3157 6.26783 32.2343 6.35385L19.5531 20.1067C19.459 20.2171 19.4075 20.3558 19.4075 20.499C19.4075 20.6422 19.459 20.7809 19.5531 20.8913L32.1512 34.6437C32.2297 34.7306 32.2807 34.8377 32.2979 34.9521C32.3151 35.0665 32.2977 35.1833 32.248 35.2884C32.1982 35.3934 32.1182 35.4823 32.0175 35.5442C31.9168 35.6061 31.7998 35.6385 31.6806 35.6373H16.8926C16.8099 35.6398 16.7276 35.6261 16.6504 35.5972C16.5733 35.5682 16.5029 35.5245 16.4435 35.4686C16.3841 35.4127 16.3369 35.3459 16.3047 35.272C16.2724 35.1981 16.2559 35.1186 16.2559 35.0384V5.96183C16.2525 5.88286 16.2658 5.80406 16.2951 5.73029C16.3244 5.65653 16.3689 5.58937 16.426 5.53297C16.4831 5.47658 16.5516 5.43215 16.6271 5.40243C16.7026 5.37271 16.7836 5.35833 16.8651 5.36019Z" fill="#DBF227"/>
    <path d="M58.2934 18.5899L65.8536 11.4523C65.9752 11.3542 66.0609 11.2207 66.0979 11.0716C66.135 10.9225 66.1214 10.7658 66.0592 10.6247C65.997 10.4837 65.8895 10.3659 65.7527 10.2889C65.6159 10.2119 65.4571 10.1798 65.2999 10.1973H61.0622L53.6407 16.7599V0.78499C53.6414 0.680021 53.6202 0.576002 53.5784 0.47916C53.5366 0.382318 53.4751 0.294646 53.3976 0.221392C53.3201 0.148138 53.2281 0.0908092 53.1272 0.0528372C53.0262 0.0148651 52.9184 -0.002969 52.8102 0.000402586H49.4316C49.2158 0.0030317 49.0093 0.0858939 48.8546 0.231889C48.7 0.377884 48.6091 0.575871 48.6006 0.78499V29.8055C48.6041 30.0162 48.6935 30.217 48.8492 30.364C49.0049 30.511 49.2143 30.5923 49.4316 30.5901H52.8102C52.919 30.5957 53.0278 30.5794 53.1298 30.5422C53.2318 30.505 53.3248 30.4478 53.4028 30.3741C53.4809 30.3004 53.5424 30.2118 53.5834 30.114C53.6244 30.0161 53.6441 29.9111 53.6413 29.8055V22.5901L54.5829 21.701L61.284 30.0941C61.4739 30.3429 61.7484 30.5188 62.0589 30.5906H65.9081C66.0592 30.6005 66.2099 30.567 66.3415 30.4942C66.473 30.4214 66.5794 30.3125 66.6474 30.1813C66.7154 30.0501 66.742 29.9023 66.7237 29.7565C66.7054 29.6107 66.6432 29.4734 66.5448 29.3617L58.2934 18.5899Z" fill="#201646"/>
    <path d="M83.4939 12.6806C81.7075 10.9995 79.3095 10.0694 76.8203 10.0922C75.4497 10.0988 74.0938 10.3671 72.8302 10.8818C71.5665 11.3965 70.4198 12.1475 69.4555 13.0919C68.4911 14.0364 67.7281 15.1558 67.21 16.3862C66.6919 17.6166 66.4288 18.934 66.4357 20.263C66.42 21.6561 66.6884 23.0386 67.2254 24.3308C67.7624 25.6231 68.5575 26.7997 69.565 27.7931C70.5145 28.6982 71.6399 29.4116 72.8759 29.8918C74.1119 30.3721 75.4339 30.6096 76.7653 30.5906C78.1686 30.6296 79.5658 30.3951 80.8741 29.9011C82.1823 29.4072 83.375 28.6637 84.3816 27.7147C84.4537 27.6494 84.5112 27.5705 84.5505 27.4828C84.5899 27.395 84.6101 27.3004 84.6101 27.2048C84.6101 27.1091 84.5899 27.0145 84.5505 26.9268C84.5112 26.8391 84.4537 26.7601 84.3816 26.6949L81.9171 24.4985C81.7627 24.3759 81.5718 24.3045 81.3724 24.2947C81.1731 24.2849 80.9758 24.3372 80.8093 24.444C79.6758 25.3596 78.2415 25.8512 76.7664 25.8297C75.746 25.8153 74.7543 25.5002 73.923 24.9262C73.0918 24.3522 72.4603 23.5465 72.1126 22.6162H85.4047C85.5928 22.6141 85.7741 22.5472 85.9161 22.4275C86.0581 22.3079 86.1517 22.1432 86.1801 21.9628C86.2652 21.2597 86.3115 20.5527 86.3188 19.8448C86.3469 16.0014 84.9617 13.9879 83.4939 12.6806ZM72.0845 18.0916C72.383 17.1401 72.9933 16.3088 73.8229 15.7238C74.6524 15.1388 75.656 14.832 76.6816 14.8498C77.6819 14.8547 78.6538 15.173 79.4523 15.7572C80.2508 16.3414 80.8332 17.1603 81.1125 18.0916H72.0845Z" fill="#201646"/>
    <path d="M106.367 10.1713H102.546C102.158 10.1713 101.937 10.4066 101.715 10.9559L96.7308 22.0676L91.8844 10.9821C91.635 10.4071 91.3582 10.1713 90.9702 10.1713H87.1486C87.0151 10.1664 86.8825 10.1945 86.7633 10.2531C86.6442 10.3116 86.5424 10.3987 86.4675 10.5059C86.3927 10.6132 86.3472 10.7372 86.3355 10.8663C86.3238 10.9953 86.3462 11.1251 86.4006 11.2434L93.7952 28.1597L88.5613 39.8207C88.4987 39.9307 88.4683 40.0553 88.4733 40.1809C88.4784 40.3064 88.5187 40.4283 88.59 40.5333C88.6613 40.6382 88.7608 40.7223 88.8777 40.7765C88.9947 40.8306 89.1247 40.8528 89.2537 40.8405H92.8793C93.1225 40.8401 93.359 40.7635 93.5536 40.6221C93.7482 40.4807 93.8905 40.2821 93.9591 40.0559L107.086 11.2434C107.15 11.1284 107.182 10.9985 107.177 10.8676C107.172 10.7367 107.13 10.6095 107.056 10.4996C106.983 10.3897 106.88 10.3012 106.759 10.2434C106.637 10.1856 106.502 10.1607 106.367 10.1713Z" fill="#201646"/>
    <path d="M120.27 10.1714C118.36 10.1714 116.088 11.1389 114.482 12.2633V11.0344C114.486 10.9331 114.47 10.8321 114.433 10.7373C114.396 10.6425 114.34 10.5558 114.268 10.4826C114.195 10.4093 114.109 10.3509 114.013 10.3109C113.917 10.2709 113.813 10.2501 113.709 10.2498H110.3C110.195 10.2476 110.09 10.2667 109.993 10.3058C109.896 10.3449 109.808 10.4032 109.735 10.4769C109.662 10.5507 109.606 10.6383 109.57 10.7343C109.533 10.8302 109.518 10.9324 109.525 11.0344V40.1093C109.524 40.2075 109.543 40.3048 109.582 40.3954C109.621 40.4861 109.678 40.5681 109.751 40.6366C109.823 40.7051 109.909 40.7586 110.004 40.7938C110.098 40.8291 110.199 40.8453 110.3 40.8416H113.709C113.81 40.8454 113.911 40.8292 114.005 40.794C114.1 40.7588 114.186 40.7053 114.259 40.6368C114.331 40.5683 114.389 40.4863 114.428 40.3956C114.467 40.3049 114.486 40.2075 114.485 40.1093V28.6563C116.091 29.8329 118.195 30.7476 120.134 30.7476C126.142 30.7476 130.463 26.3031 130.463 20.4462C130.46 14.5642 126.141 10.1714 120.27 10.1714ZM120.048 25.9111C116.863 25.9111 114.703 23.4533 114.703 20.4467C114.703 17.4401 116.863 15.1109 120.048 15.1109C123.121 15.1109 125.282 17.3857 125.282 20.4184C125.283 23.4272 123.039 25.9111 120.048 25.9111Z" fill="#8E6EC8"/>
    <path d="M152.725 10.1714H149.375C149.267 10.1681 149.159 10.186 149.058 10.224C148.957 10.262 148.865 10.3193 148.788 10.3926C148.71 10.4658 148.649 10.5535 148.607 10.6503C148.565 10.7471 148.544 10.851 148.544 10.956V12.1849C146.994 11.0867 144.916 10.1191 142.95 10.1191C140.177 10.1594 137.531 11.2578 135.588 13.1763C133.644 15.0948 132.558 17.6788 132.565 20.3683C132.565 26.2247 136.859 30.6175 142.868 30.6175C144.89 30.6175 146.994 29.65 148.545 28.5523V29.7812C148.548 29.9919 148.638 30.1926 148.793 30.3397C148.949 30.4867 149.158 30.568 149.375 30.5658H152.726C152.835 30.5713 152.943 30.555 153.045 30.5178C153.147 30.4806 153.24 30.4233 153.318 30.3496C153.396 30.2759 153.458 30.1874 153.499 30.0896C153.54 29.9918 153.559 29.8868 153.556 29.7812V10.9299C153.559 10.8256 153.538 10.7219 153.497 10.6257C153.455 10.5295 153.393 10.4429 153.315 10.3714C153.237 10.2999 153.144 10.2451 153.042 10.2107C152.941 10.1762 152.833 10.1628 152.725 10.1714ZM143.144 25.6497C141.712 25.6101 140.353 25.0307 139.355 24.0348C138.357 23.0389 137.798 21.7048 137.798 20.3161C137.798 18.9273 138.357 17.5933 139.355 16.5973C140.353 15.6014 141.712 15.0221 143.144 14.9824C143.853 14.99 144.554 15.1349 145.204 15.4087C145.855 15.6825 146.443 16.0795 146.933 16.5766C147.423 17.0737 147.806 17.6607 148.059 18.3033C148.312 18.9458 148.43 19.6309 148.406 20.3182C148.377 23.2181 146.19 25.6497 143.144 25.6497Z" fill="#8E6EC8"/>
    <path d="M175.931 10.2758H172.552C172.444 10.2726 172.336 10.2906 172.235 10.3286C172.134 10.3666 172.042 10.4239 171.965 10.4972C171.887 10.5704 171.826 10.658 171.784 10.7548C171.742 10.8515 171.721 10.9555 171.721 11.0604V12.2893C170.116 11.1122 167.874 10.1958 166.017 10.1958C160.146 10.1958 155.742 14.6403 155.742 20.4711C155.742 26.3514 160.089 30.7464 166.099 30.7464C168.037 30.7464 170.114 29.7789 171.72 28.6551V29.9074C171.72 32.1038 171.166 33.6202 170.307 34.481C169.812 34.9686 169.221 35.3561 168.57 35.6208C167.919 35.8856 167.22 36.0225 166.514 36.0235C165.696 36.0296 164.888 35.8565 164.15 35.517C163.411 35.1776 162.762 34.6807 162.249 34.0634C162.178 33.9754 162.089 33.9028 161.987 33.8506C161.885 33.7983 161.773 33.7675 161.658 33.7601C161.543 33.7527 161.428 33.7689 161.32 33.8076C161.212 33.8464 161.113 33.9068 161.031 33.985L158.539 36.3905C158.398 36.5219 158.314 36.7003 158.304 36.8896C158.293 37.0789 158.357 37.265 158.483 37.4103C159.5 38.4935 160.74 39.358 162.123 39.948C163.506 40.538 165.002 40.8403 166.513 40.8356C167.833 40.8493 169.143 40.6071 170.366 40.1234C171.589 39.6396 172.699 38.924 173.633 38.0184C175.848 35.9266 176.734 33.336 176.734 27.6125V11.0604C176.738 10.9569 176.72 10.8538 176.681 10.7573C176.642 10.6609 176.583 10.5732 176.507 10.4997C176.432 10.4262 176.342 10.3685 176.243 10.3299C176.144 10.2914 176.038 10.273 175.931 10.2758ZM166.239 25.9371C163.054 25.9371 160.922 23.4532 160.922 20.4466C160.922 17.44 163.138 15.1391 166.183 15.1391C166.896 15.1431 167.601 15.2852 168.256 15.557C168.912 15.8288 169.505 16.2249 170 16.7219C170.495 17.219 170.883 17.8071 171.141 18.4515C171.399 19.096 171.521 19.784 171.501 20.4749C171.529 23.481 169.618 25.9371 166.239 25.9371Z" fill="#8E6EC8"/>
    <path d="M189.639 10.0923C188.258 10.0916 186.891 10.3574 185.617 10.8741C184.343 11.3909 183.188 12.1483 182.219 13.1021C181.25 14.056 180.486 15.1874 179.973 16.4302C179.459 17.6731 179.206 19.0027 179.227 20.3415C179.192 21.6854 179.434 23.0226 179.94 24.2742C180.446 25.5259 181.205 26.6666 182.173 27.6292C183.141 28.5919 184.298 29.3569 185.575 29.8793C186.853 30.4017 188.225 30.6708 189.612 30.6708C190.998 30.6708 192.37 30.4017 193.648 29.8793C194.925 29.3569 196.082 28.5919 197.05 27.6292C198.018 26.6666 198.777 25.5259 199.283 24.2742C199.789 23.0226 200.031 21.6854 199.996 20.3415C199.969 14.5896 195.455 10.0923 189.639 10.0923ZM189.612 25.7797C186.648 25.7797 184.433 23.3481 184.433 20.3415C184.433 17.3349 186.623 14.9033 189.612 14.9033C192.63 14.9033 194.817 17.3349 194.817 20.3415C194.818 23.3225 192.603 25.7797 189.612 25.7797Z" fill="#8E6EC8"/>
  </g>
</svg>
